<?xml version="1.0" encoding="UTF-8"?><svg xmlns="http://www.w3.org/2000/svg" xmlns:xlink="http://www.w3.org/1999/xlink" data-name="Layer 1" height="347.0" preserveAspectRatio="xMidYMid meet" version="1.0" viewBox="-0.3 -1.3 466.0 347.0" width="466.0" zoomAndPan="magnify"><g id="change1_1"><path d="M435.75,79.34c-13,20.37-34.35,35.26-58.27,39.38-24.4,4.2-50.43-3.86-67.93-21.38-4.89-4.9-10-10.59-17-12.25a19.77,19.77,0,0,0-3.75-.5A78.73,78.73,0,0,1,306,69.6a3.17,3.17,0,0,0,1.29-3.95c-.57-1.29-2.25-2.44-3.73-1.83l-.75.33h0l-.07,0a52.51,52.51,0,0,0-22.9,19.08q.72-3.09,1.46-6.16c5-5.25,9.89-10.67,14.42-16.38a155.68,155.68,0,0,0,16.64-25.26,125.09,125.09,0,0,0,6-13.66c1.46-3.94,2.81-8,2.43-12.25-.35-3.92-2.12-7.93-6.17-9.18-5.16-1.6-10.36,2.28-13.85,5.7-6.73,6.58-10.18,15.75-13,24.53Q280.83,52,275.5,74C270,79.6,264.33,85,258.58,90.34q-5.62,5.19-11.34,10.29c-1.39,1.24-7.79,6.57-7.89,1.92,0-2.53,1.1-5.28,1.74-7.68.78-3,1.57-5.91,2.36-8.86l4.92-18.46c.76-2.86-3.19-5.62-5.29-3.08a22.44,22.44,0,0,1-19,7.93A79.68,79.68,0,0,0,230,66.09a3.23,3.23,0,0,0,0-4.47c-4.42-4.48-12.19-4.82-16.6-.09a12,12,0,0,0-3.2,8.45c.06,1.51.31,3.6,1.42,4.74a72.81,72.81,0,0,1-13.38,7.85,18.2,18.2,0,0,0-5.84-10.45c-4.83-4.15-11.31-4.62-16.2-1.27a2.79,2.79,0,0,0-3.64-1.75q-16.87,6.89-34.06,13a44.12,44.12,0,0,0-.33-12,3.19,3.19,0,0,0-3.05-2.32c-5-.08-10.13,1.76-13.2,5.84a11.56,11.56,0,0,0-.61,12.82A9.41,9.41,0,0,0,130.12,91a74.85,74.85,0,0,1-10.2,19c-3.87,5.42-8.21,11.46-13.71,15.33-2.38,1.68-5.28,3.24-8.3,2.81a7.81,7.81,0,0,1-5.73-4.5c-3.5-6.88.61-14.62,3.8-20.76,1.57-3-2.48-6.65-5-3.83-4.67,5.31-7.56,11.71-11.37,17.6-3.18,4.9-7.64,9.31-13.64,10.33a8.54,8.54,0,0,1-10.17-7.35c-.92-5.51,1.43-11,4.39-15.46,4.21-6.41,9.4-12.08,11.83-19.5,1.26-3.88-4.84-5.54-6.1-1.68C63.6,90.11,58,95.64,54.09,102c-3.52,5.62-5.57,12.4-4.4,19A14.73,14.73,0,0,0,63,133.33c6.76.58,13.74-3.32,18.12-8.24a40.57,40.57,0,0,0,3.59-4.78,18.67,18.67,0,0,0,.61,3c2.24,7.56,9.17,12.59,17.13,10.72s13.66-9,18.47-15a95,95,0,0,0,13.4-21.44,56.94,56.94,0,0,0,2.84-8.24c5.6-1.94,11.14-4,16.68-6.12l1.22-.47-.45.52c-4.55,5.47-8.6,12-9.29,19.21-.64,6.66,3.07,13.78,9.8,15.68,8.16,2.29,16.75-3.31,23.65-6.92,7.72-4,15-9,18.41-17.4a19,19,0,0,0,1.21-4.58,82.36,82.36,0,0,0,7.48-3.52,81,81,0,0,0,12.18-8,28.93,28.93,0,0,0,21.71-2.43c-.8,3-1.6,6-2.41,9l-2.16,8.12a59.83,59.83,0,0,0-2.06,8.73c-.57,4.9,2.38,9.66,7.71,9.56,4.93-.1,8.82-3.8,12.26-6.89,6.63-6,13.24-12,19.65-18.22q-2.6,11.46-4.81,23a3.17,3.17,0,0,0,6.1,1.68,78.37,78.37,0,0,1,9.07-18.23c2.87-1.8,7.11-1.46,10.06-.14,5.89,2.61,9.95,8.19,14.57,12.44a82.31,82.31,0,0,0,32.83,18.3,87.55,87.55,0,0,0,71.56-10.9,96.92,96.92,0,0,0,29.08-29.25C443.41,79.1,437.94,75.92,435.75,79.34Zm-308,5A4.63,4.63,0,0,1,126,80.13c.24-3.37,3.33-5.1,6.43-5.7a36.86,36.86,0,0,1-.53,10.07A5.15,5.15,0,0,1,127.78,84.36Zm59.07-8.49a11.77,11.77,0,0,1,5.35,9c-1.58.53-3.17,1-4.79,1.41-2.95.73-6.76,1.34-9.43-.52a4.24,4.24,0,0,1-1.56-5C177.68,76.16,182.49,73.31,186.85,75.87Zm-9.41,28.94c-3.16,1.61-6.25,3.36-9.46,4.87-2.77,1.3-5.86,2.59-9,2.63-5.12.06-7.62-4.64-7.44-8.85.24-5.83,4.1-11.72,7.84-16.12A51,51,0,0,1,171.2,77c-2.52,5.75-1.1,12.56,5.54,15.28,4.61,1.88,9.85,1,14.47-.42C188.75,97.82,183,102,177.44,104.81Zm41.37-39.65a5,5,0,0,1,4.08-.57,80.12,80.12,0,0,1-6,5.9l-.23-.11A5.26,5.26,0,0,1,218.81,65.16Zm70.56-18.3c2.64-9,5-18.41,9.23-26.82a34.69,34.69,0,0,1,6.83-9.7c1.59-1.52,6.19-5.56,8-3.52s1.1,6,.47,8.36a81,81,0,0,1-4.67,12.13A138,138,0,0,1,295.55,50.5c-3.44,4.76-7.15,9.31-11,13.72Q286.84,55.51,289.37,46.86Z" fill="#f492a6"/></g><g id="change1_2"><path d="M285.4,131.2a3.18,3.18,0,0,0-4.32,1.13c-8.6,17.46-25,29.83-41.37,39.57-3.79,2.26-9.28,5.3-13.78,3.2-.86-.41-.84-.41-.81-1.2a17.11,17.11,0,0,1,.86-3.56,47.49,47.49,0,0,0,1.78-8.59c.39-4.7-1.13-9.85-4.93-12.86-4.24-3.36-9.76-2.62-14.07.21-4.75,3.11-8.65,7.75-12.27,12.12,1.22-3,2.55-6,4-8.93l.09-.09c2.73-3-1.65-7.4-4.41-4.52a2.72,2.72,0,0,0-.81.84,202.89,202.89,0,0,1-27.55,24.85c-3.43,2.56-9.08,7.43-13.52,4.35-1.91-1.33-1.37-3.13-.73-5.2.8-2.61,1.63-5.22,2.6-7.78,2-5.19,4.72-10.55,9.29-13.91a3.27,3.27,0,0,0,1.14-4.33c-.8-1.35-3-2.15-4.33-1.13-5.36,3.94-8.77,9.38-11.3,15.45-1.18,2.83-2.16,5.73-3.07,8.65-1.06,3.35-2,6.83-.25,10.13a10.86,10.86,0,0,0,7.31,5.12,15.19,15.19,0,0,0,10.19-1.94,64.89,64.89,0,0,0,8.61-6c2.94-2.27,5.84-4.59,8.66-7,2.11-1.8,4.17-3.65,6.2-5.54a123.3,123.3,0,0,0-3.95,13.58,3.17,3.17,0,0,0,5.77,2.43A127.93,127.93,0,0,1,199.84,167c3.29-4,6.79-8.28,10.84-11.56,2.92-2.36,7.16-4.06,9.53-.14,2.48,4.1.85,9.07-.32,13.32-.77,2.78-1.7,5.72-.45,8.5,1.11,2.51,3.76,3.91,6.33,4.49,5.4,1.22,10.77-.75,15.45-3.33a148.9,148.9,0,0,0,24.56-17.19c8.41-7.16,15.85-15.65,20.76-25.61A3.24,3.24,0,0,0,285.4,131.2Z" fill="#f492a6"/></g><g id="change1_3"><path d="M458.49,229.67c-2.34,8.17-6.85,16-13.68,21.17s-16,7.53-24.3,5.23c-8.86-2.45-15-10.09-22.37-15.07a33.15,33.15,0,0,0-9.55-4.43,67.05,67.05,0,0,0-8.22-7.74c2.48-1.78,4.4-4.14,4.45-7.46.07-5-4-9.47-7.72-12.3s-9.17-4.73-13-1c-4,3.9-1.94,9.93.76,13.89a37.3,37.3,0,0,0,4.41,5.28c-3.86,1.36-7.85,2.31-11.81,3.29-2.59.64-5.2,1.31-7.76,2.12-1.5-1.25-3.11-2.36-4.71-3.49l.13-.12c3.34-3.35,5.39-7.82,4.5-12.59-.74-4-3.68-7.95-7.76-9a9,9,0,0,0-10.07,4.71,14.35,14.35,0,0,0-.58,11.06,15.6,15.6,0,0,0,3.5,5.51,62.91,62.91,0,0,1-11,4.79,68.65,68.65,0,0,1-14.65,3.18c-3.93.39-7.89.6-11.69-.38a14.75,14.75,0,0,1-4.51-1.87,6.27,6.27,0,0,1-2.5-2.76c.07.16-.19-.6-.24-.77a2.74,2.74,0,0,1-.13-.75,7.43,7.43,0,0,1,.24-2.4c7.38,2.9,16.56-.55,19.7-8,1.09-2.57,1.22-5.47-1-7.5a11.26,11.26,0,0,0-7.13-2.68c-5.11-.24-9.78,2.58-12.83,6.51-2.65,3.42-5.08,8.24-5.3,12.78a41.81,41.81,0,0,1-10.64,10.95c-3.56,2.5-8.07,5.42-12.56,5.44-1.53,0-2.56-.47-2.8-2.21a23,23,0,0,1,.87-8.06,36.31,36.31,0,0,1,7.13-14.65,3.2,3.2,0,0,0,.24-4.15,3.16,3.16,0,0,0-4.08-.82,3.37,3.37,0,0,1-2.52.64,6.25,6.25,0,0,1-4.35-2.82,3.43,3.43,0,0,1-.57-2.24,3.21,3.21,0,0,0-4.65-3.57,111.15,111.15,0,0,0-33.69,27q-2.79-5.06-5.77-10c-1.28-2.11-2.58-4.22-3.89-6.31A3.29,3.29,0,0,0,206,213a14.76,14.76,0,0,0-12.77-1.32c-4.2,1.43-7.66,4.31-10.63,7.54l0,0a2.8,2.8,0,0,0-2.32.95A43,43,0,0,1,146,233s0-.08,0-.12c.37-5.45-2.11-11.6-7.08-14.29a10.41,10.41,0,0,0-14.31,5,8.64,8.64,0,0,0-.47,1.41,2.87,2.87,0,0,0-1.72.85q-7.14,7.29-14.27,14.57l-7,7.17a40.92,40.92,0,0,1-6.41,5.93c-1.4.93-3.62,2.31-5.31,1.48s-1.71-2.82-1.54-4.49a29.67,29.67,0,0,1,2-7.07q1.73-4.64,3.63-9.22c2.79-6.67,5.92-13.2,9.31-19.59,1.93-3.65-3.13-6.47-5.46-3.19-4.46,6.25-12.41,8.86-19.58,10.42-6.25,1.35-12.76,2.14-18.88,4a19.07,19.07,0,0,0-13.35-8.94,16.07,16.07,0,0,0-10.19,1.6,14.75,14.75,0,0,0-4.52,3.9c-.29-2.58-4.22-4.17-5.9-1.31C10.41,245.84,1.23,274.6,0,303.35c-.26,6.26.9,14,7.14,17.1A3.25,3.25,0,0,0,11,320c5.42-5.83,7.33-13.55,8.81-21.15,1.77-9.08,3.5-18.17,5.25-27.26l5.28-27.37c.75-3.86,1.35-7.79,2.45-11.58.87-3,2.2-6.12,4.79-8,4-2.92,10-1.6,13.68,1.76a11.64,11.64,0,0,1,1.65,1.88c-.62.31-1.24.63-1.84,1-7,4-12.8,11.08-13.14,19.34-.19,4.38,1.47,9.38,6.52,9.73,4.19.3,7.91-2.77,10.47-5.75,4.84-5.63,7.68-13.37,6.24-20.77,6.77-2.11,14.06-2.69,20.89-4.45a49.24,49.24,0,0,0,9.08-3.23c-1.15,2.52-2.28,5-3.35,7.6q-2.1,5-4,10a32.11,32.11,0,0,0-2.3,9,10.6,10.6,0,0,0,2.65,8.18,9.17,9.17,0,0,0,8.66,2.35c6.58-1.43,11.38-7.8,15.83-12.34l5-5.09c-.07.29-.16.57-.24.87-.74,2.94-1.07,6.38,1,8.87,2.32,2.75,5.94,2.37,9.13,1.76,8.87-1.7,17.54-7.67,21-16.09a49.64,49.64,0,0,0,27.8-5.33,25.61,25.61,0,0,0-2,7.57c-.71,7.47,3.14,15.71,10.64,18.08,8.38,2.65,16.81-3,20.75-10.14a44,44,0,0,0,4.95-18.75q2.67,4.5,5.16,9.1-2,2.59-3.77,5.29A116.39,116.39,0,0,0,188.84,298a103.43,103.43,0,0,0-.46,14.08A51.17,51.17,0,0,0,191,327.75c3.54,9.63,12.6,17.95,23.5,16.05,10.18-1.77,15.35-12.48,18-21.36a85.19,85.19,0,0,0,2.63-34.14c-2-17-8-32.85-15.82-47.9A105.82,105.82,0,0,1,247.2,216c.57-.35,1.16-.67,1.75-1a11.7,11.7,0,0,0,4.35,5.28,11.59,11.59,0,0,0,3.72,1.64,43.6,43.6,0,0,0-3.71,8.3,43,43,0,0,0-1.71,8.09c-.32,2.62-.55,5.44.45,7.94,2,5,7.44,5.93,12.18,4.88,4.59-1,9.08-3.7,12.82-6.46a50,50,0,0,0,8.82-8.31,14,14,0,0,0,4.47,4c8,4.53,18.27,3.25,26.86,1.5a76.11,76.11,0,0,0,15.57-5,59.85,59.85,0,0,0,7.16-3.69l3,2.17a31.55,31.55,0,0,0-8.25,5.48,18.93,18.93,0,0,0-6.28,12.54,13,13,0,0,0,5.6,11.17c7.42,5.41,17.37,2.26,21.88-5.27,4.08-6.8,2.84-15.11-1.43-21.41,2.6-.69,5.22-1.28,7.73-1.91a83.34,83.34,0,0,0,12.27-3.9l.86.73c1.18,1,2.46,2.07,3.75,3.21a15.74,15.74,0,0,0-6.28,2.5,16,16,0,0,0-3,23.73,15.17,15.17,0,0,0,12.58,5.16,13.28,13.28,0,0,0,10.15-6.53,17.52,17.52,0,0,0,1.37-14.94c5.26,3.27,9.79,7.91,14.87,11.44a32.47,32.47,0,0,0,27.91,4.62c9.48-2.74,17.22-9.39,22.35-17.71a52.07,52.07,0,0,0,5.57-12.83C465.72,227.44,459.62,225.76,458.49,229.67ZM24.84,239.41l-3,15.38q-3.26,16.92-6.52,33.84c-1,5-1.77,10-3,14.95a30.65,30.65,0,0,1-4,9.67c-2-2.62-2.07-6.81-1.91-10.11a154.88,154.88,0,0,1,2.25-19.57A177.26,177.26,0,0,1,20,244.84c2-4.71,4.24-9.33,6.66-13.85C25.88,233.75,25.38,236.59,24.84,239.41Zm28.88,3.37a20.29,20.29,0,0,1-5.91,7.91c-.62.48-2.24,1.53-2.91,1.32s-.67-2.15-.66-3c.06-6.53,5.39-11.92,10.86-14.8A17.28,17.28,0,0,1,53.72,242.78Zm76.6-16.64a4.92,4.92,0,0,1,3-2.43c3.2-.82,5.6,3.18,6.21,6.14a10.76,10.76,0,0,1,.22,2.24,27.34,27.34,0,0,1-7.63-2.83,4.24,4.24,0,0,1-1.88-1.77A1.68,1.68,0,0,1,130.32,226.14Zm-3.24,21.53a22.07,22.07,0,0,1-6.91,1.77c-.89.05-1,.15-1-.42a9.34,9.34,0,0,1,.51-3.21,48.62,48.62,0,0,1,6.11-13.75c2,2.41,4.94,3.65,7.81,4.69a40.9,40.9,0,0,0,4.62,1.38C135.85,242.46,131.33,245.9,127.08,247.67Zm70.82-5.24c-2,5.63-6.34,11.5-12.92,11.4-5.39-.09-8.3-5.39-8.43-10.25-.18-6.52,4.12-12.33,8.12-17.11,3.56-4.26,9.48-10.79,15.57-9.24a4.07,4.07,0,0,0-.26,2.24A49.82,49.82,0,0,1,197.9,242.43Zm29.24,36.24a89.47,89.47,0,0,1,1.58,31.41,68.28,68.28,0,0,1-3.89,15.23c-1.44,3.73-3.59,7.57-6.77,10.08-7,5.55-16,.38-19.7-6.49-4.34-8-4.08-18.36-3.5-27.21a108.63,108.63,0,0,1,15.84-49.12c1.37-2.25,2.84-4.45,4.36-6.6A139.82,139.82,0,0,1,227.14,278.67Zm76.19-62.48c.34.12.64.33,1,.45-.25.47-.58,1.54-.78,1.86a9.42,9.42,0,0,1-10.9,3.47q.4-.69.84-1.35C295.55,217.54,299.47,214.88,303.33,216.19Zm34.4-1.55.36-.43c.31-.3,0-.08.49-.36a1.94,1.94,0,0,1,1.38-.31,3.83,3.83,0,0,1,2.46,1.66,6.15,6.15,0,0,1,1.15,4.27c-.24,2.18-1.73,4.13-3.52,5.72a11.88,11.88,0,0,1-2.59-3.33,8.6,8.6,0,0,1-.71-3.91A5.84,5.84,0,0,1,337.73,214.64Zm12,27.4c2.24,3.65,3.21,8.21,1.57,12.3-1.32,3.28-4.39,6.26-8,6.55-3.18.25-6.82-1.46-8.11-4.52-1.65-3.93,1-8.33,3.8-11a27.13,27.13,0,0,1,9.1-5.55A16.12,16.12,0,0,1,349.71,242Zm18.68-29.27c.53-.92,1.81-.43,2.74,0a14.43,14.43,0,0,1,4.62,3.63c1.14,1.24,2.68,3,2.75,4.76s-1.74,2.63-3.09,3.36a32.53,32.53,0,0,1-5.9-7.06C368.84,216.3,367.61,214.12,368.39,212.77Zm20.13,40.83c-.56,3.13-2.32,6.31-5.42,7.19-4,1.14-8.14-1.4-10-4.91a9.47,9.47,0,0,1,1.27-10.48c2.64-3.1,6.87-3.9,10.74-3.17h0C387.65,245.61,389.26,249.39,388.52,253.6Z" fill="#f492a6"/></g><g id="change1_4"><ellipse cx="175.42" cy="131.92" fill="#f492a6" rx="7.12" ry="5.43" transform="rotate(-32 175.449 131.925)"/></g></svg>