<?xml version="1.0" encoding="UTF-8"?><svg xmlns="http://www.w3.org/2000/svg" xmlns:xlink="http://www.w3.org/1999/xlink" height="197.1" preserveAspectRatio="xMidYMid meet" version="1.0" viewBox="0.0 -0.4 174.0 197.1" width="174.0" zoomAndPan="magnify"><g id="change1_1"><path d="M37,20.1c-1.2-0.9-2.7-1.7-4.2-2.3c-1.5-0.6-3.1-1-4.7-1.4c-1.6-0.4-3.1-0.7-4.6-1c-1.4-0.3-2.8-0.5-3.9-0.9 c-1.1-0.3-1.9-0.7-2.6-1.1c-0.5-0.3-0.7-0.6-0.7-1.1c0-0.4,0.3-0.7,1-1.1c0.8-0.5,2.1-0.7,3.8-0.7c0.9,0,1.6,0.1,2.2,0.3 c0.6,0.2,1,0.4,1.4,0.8c0.3,0.3,0.6,0.6,0.7,1c0.2,0.4,0.2,0.8,0.2,1.2v1.1h14.5v-1.6c0-2.3-0.6-4.4-1.7-6.1 c-1.1-1.7-2.5-3.1-4.3-4.2c-1.8-1.1-3.9-1.9-6.2-2.4c-4.6-1-10-1-14.8,0C10.8,1.2,8.7,2,6.9,3.1C5,4.2,3.5,5.7,2.4,7.4 c-1.1,1.8-1.7,4-1.7,6.5c0,2.1,0.4,4,1.2,5.5c0.8,1.5,1.8,2.8,3.1,3.8c1.2,1,2.7,1.8,4.2,2.4c1.5,0.6,3.1,1.1,4.7,1.5 c1.6,0.4,3.1,0.7,4.6,1c1.5,0.3,2.8,0.6,3.9,0.9c1.1,0.3,2,0.6,2.6,1c0.6,0.4,0.7,0.7,0.7,1c0,0.5-0.2,0.7-0.3,0.9 c-0.3,0.3-0.7,0.5-1.1,0.6c-0.5,0.2-1.1,0.3-1.7,0.3c-1.8,0.1-3.3,0.1-4.6-0.1c-0.7-0.1-1.3-0.3-1.8-0.6c-0.5-0.3-0.8-0.7-1-1.2 c-0.3-0.5-0.4-1.3-0.4-2.3v-0.9H0v0.9c0,3,0.6,5.6,1.7,7.6c1.1,2,2.7,3.6,4.7,4.8c2,1.1,4.3,1.9,6.9,2.4c2.6,0.4,5.4,0.6,8.4,0.6 c2.7,0,5.3-0.3,7.6-0.8c2.4-0.6,4.5-1.4,6.2-2.7c1.8-1.2,3.2-2.8,4.2-4.8c1-1.9,1.5-4.3,1.5-6.9c0-2-0.5-3.8-1.3-5.2 C39.3,22.3,38.2,21.1,37,20.1z M38.3,35c-0.9,1.7-2.1,3.1-3.6,4.1c-1.6,1.1-3.5,1.9-5.6,2.4c-2.2,0.5-4.6,0.8-7.2,0.8 c-2.9,0-5.6-0.2-8.1-0.6c-2.4-0.4-4.6-1.1-6.3-2.2c-1.7-1-3.1-2.4-4.1-4.1c-0.9-1.5-1.4-3.5-1.5-5.9h11.1c0.1,0.8,0.2,1.6,0.5,2.2 c0.4,0.8,1,1.5,1.7,1.9c0.7,0.4,1.5,0.7,2.5,0.9c1.4,0.2,3,0.3,5,0.1c0.8-0.1,1.5-0.2,2.1-0.4c0.7-0.2,1.3-0.6,1.8-1 c0.6-0.5,0.9-1.3,0.9-2.2c0-0.7-0.3-1.7-1.5-2.5c-0.8-0.5-1.8-0.9-3.1-1.2c-1.2-0.3-2.6-0.6-4.1-0.9c-1.5-0.3-3-0.6-4.5-1 c-1.5-0.4-3-0.9-4.5-1.4c-1.4-0.6-2.7-1.3-3.8-2.2C5,21,4.1,19.9,3.4,18.6c-0.6-1.2-1-2.8-1-4.7c0-2.2,0.5-4.1,1.4-5.6 c1-1.5,2.3-2.8,3.9-3.8c1.6-1,3.6-1.7,5.8-2.2c4.5-0.9,9.7-0.9,14,0c2.1,0.5,4,1.2,5.6,2.2c1.6,1,2.8,2.2,3.8,3.6 c0.9,1.4,1.4,3.1,1.4,5h-11c-0.1-0.4-0.2-0.8-0.3-1.2c-0.3-0.6-0.7-1.2-1.2-1.6c-0.5-0.5-1.2-0.8-2-1.1c-0.8-0.3-1.7-0.4-2.8-0.4 c-2.1,0-3.6,0.3-4.7,0.9c-1.2,0.7-1.8,1.6-1.8,2.6c0,1.1,0.5,2,1.5,2.6c0.8,0.5,1.8,0.9,3.1,1.3c1.2,0.3,2.5,0.6,4,0.9 c1.5,0.3,3,0.6,4.5,0.9c1.5,0.4,3,0.8,4.5,1.3c1.4,0.5,2.7,1.2,3.8,2c1.1,0.8,2,1.8,2.6,3c0.7,1.2,1,2.6,1,4.4 C39.6,31.3,39.1,33.3,38.3,35z M65.7,12.1l-5,16.3h11.6l-5-16.3H65.7z M63,26.7l3.4-11.1l3.4,11.1H63z M58.2,0.7L42,43.3h15.8 l1.8-5.8h13.5l1.8,5.8h16.3L75.2,0.7H58.2z M76.3,41.6l-1.8-5.8H58.4l-1.8,5.8h-12L59.4,2.5H74l14.8,39.1H76.3z M109.6,0.7H94.2 v42.6h37.1V31.1h-21.7V0.7z M129.6,32.9v8.7H96V2.5h11.8v30.4H129.6z M150.6,31.8v-4.5h19.7V16.1h-19.7v-3.9h23V0.7h-38.4v42.6h38.8 V31.8H150.6z M172.3,41.6h-35.3V2.5h34.8v8h-23v7.4h19.7v7.6h-19.7v8h23.4V41.6z M37,72.2c-1.2-0.9-2.7-1.7-4.2-2.3 c-1.5-0.6-3.1-1-4.7-1.4c-1.6-0.4-3.1-0.7-4.6-1c-1.4-0.3-2.8-0.5-3.9-0.9c-1.1-0.3-1.9-0.7-2.6-1.1c-0.5-0.3-0.7-0.6-0.7-1.1 c0-0.4,0.3-0.7,1-1.1c0.8-0.5,2.1-0.7,3.8-0.7c0.9,0,1.6,0.1,2.2,0.3c0.6,0.2,1,0.4,1.4,0.8c0.3,0.3,0.6,0.6,0.7,1 c0.2,0.4,0.2,0.8,0.2,1.2v1.1h14.5v-1.6c0-2.3-0.6-4.4-1.7-6.1c-1.1-1.7-2.5-3.1-4.3-4.2c-1.8-1.1-3.9-1.9-6.2-2.4 c-4.6-1-10-1-14.8,0c-2.4,0.5-4.5,1.3-6.3,2.4c-1.9,1.1-3.4,2.6-4.5,4.3c-1.1,1.8-1.7,4-1.7,6.5c0,2.1,0.4,4,1.2,5.5 c0.8,1.5,1.8,2.8,3.1,3.8c1.2,1,2.7,1.8,4.2,2.4c1.5,0.6,3.1,1.1,4.7,1.5c1.6,0.4,3.1,0.7,4.6,1c1.5,0.3,2.8,0.6,3.9,0.9 c1.1,0.3,2,0.6,2.6,1c0.6,0.4,0.7,0.7,0.7,1c0,0.5-0.2,0.7-0.3,0.9c-0.3,0.3-0.7,0.5-1.1,0.6c-0.5,0.2-1.1,0.3-1.7,0.3 c-1.8,0.1-3.3,0.1-4.6-0.1c-0.7-0.1-1.3-0.3-1.8-0.6c-0.5-0.3-0.8-0.7-1-1.2c-0.3-0.5-0.4-1.3-0.4-2.3v-0.9H0v0.9 c0,3,0.6,5.6,1.7,7.6c1.1,2,2.7,3.6,4.7,4.8c2,1.1,4.3,1.9,6.9,2.4c2.6,0.4,5.4,0.6,8.4,0.6c2.7,0,5.3-0.3,7.6-0.8 c2.4-0.6,4.5-1.4,6.2-2.7c1.8-1.2,3.2-2.8,4.2-4.8c1-1.9,1.5-4.3,1.5-6.9c0-2-0.5-3.8-1.3-5.2C39.3,74.3,38.2,73.1,37,72.2z M38.3,87.1c-0.9,1.7-2.1,3.1-3.6,4.1c-1.6,1.1-3.5,1.9-5.6,2.4c-2.2,0.5-4.6,0.8-7.2,0.8c-2.9,0-5.6-0.2-8.1-0.6 c-2.4-0.4-4.6-1.1-6.3-2.2c-1.7-1-3.1-2.4-4.1-4.1c-0.9-1.5-1.4-3.5-1.5-5.9h11.1c0.1,0.8,0.2,1.6,0.5,2.2c0.4,0.8,1,1.5,1.7,1.9 c0.7,0.4,1.5,0.7,2.5,0.9c1.4,0.2,3,0.3,5,0.1c0.8-0.1,1.5-0.2,2.1-0.4c0.7-0.2,1.3-0.6,1.8-1c0.6-0.5,0.9-1.3,0.9-2.2 c0-0.7-0.3-1.7-1.5-2.5c-0.8-0.5-1.8-0.9-3.1-1.2c-1.2-0.3-2.6-0.6-4.1-0.9c-1.5-0.3-3-0.6-4.5-1c-1.5-0.4-3-0.9-4.5-1.4 c-1.4-0.6-2.7-1.3-3.8-2.2C5,73,4.1,71.9,3.4,70.7c-0.6-1.2-1-2.8-1-4.7c0-2.2,0.5-4.1,1.4-5.6c1-1.5,2.3-2.8,3.9-3.8 c1.6-1,3.6-1.7,5.8-2.2c4.5-0.9,9.7-0.9,14,0c2.1,0.5,4,1.2,5.6,2.2c1.6,1,2.8,2.2,3.8,3.6c0.9,1.4,1.4,3.1,1.4,5h-11 c-0.1-0.4-0.2-0.8-0.3-1.2c-0.3-0.6-0.7-1.2-1.2-1.6c-0.5-0.5-1.2-0.8-2-1.1c-0.8-0.3-1.7-0.4-2.8-0.4c-2.1,0-3.6,0.3-4.7,0.9 c-1.2,0.7-1.8,1.6-1.8,2.6c0,1.1,0.5,2,1.5,2.6c0.8,0.5,1.8,0.9,3.1,1.3c1.2,0.3,2.5,0.6,4,0.9c1.5,0.3,3,0.6,4.5,0.9 c1.5,0.4,3,0.8,4.5,1.3c1.4,0.5,2.7,1.2,3.8,2c1.1,0.8,2,1.8,2.6,3c0.7,1.2,1,2.6,1,4.4C39.6,83.3,39.1,85.4,38.3,87.1z M65.7,64.2 l-5,16.3h11.6l-5-16.3H65.7z M63,78.7l3.4-11.1l3.4,11.1H63z M58.2,52.8L42,95.4h15.8l1.8-5.8h13.5l1.8,5.8h16.3L75.2,52.8H58.2z M76.3,93.6l-1.8-5.8H58.4l-1.8,5.8h-12l14.8-39.1H74l14.8,39.1H76.3z M109.6,52.8H94.2v42.6h37.1V83.2h-21.7V52.8z M129.6,85v8.7 H96V54.5h11.8V85H129.6z M150.6,79.4h19.7V68.2h-19.7v-3.9h23V52.8h-38.4v42.6h38.8V83.8h-23.4V79.4z M172.3,85.6v8h-35.3V54.5h34.8 v8h-23V70h19.7v7.6h-19.7v8H172.3z M37,124.2c-1.2-0.9-2.7-1.7-4.2-2.3c-1.5-0.5-3.1-1-4.7-1.4c-1.6-0.4-3.1-0.7-4.6-1 c-1.4-0.3-2.8-0.5-3.9-0.9c-1.1-0.3-1.9-0.7-2.6-1.1c-0.6-0.4-0.7-0.8-0.7-1.1c0-0.4,0.3-0.7,1-1.1c0.8-0.5,2.1-0.7,3.8-0.7 c0.9,0,1.6,0.1,2.2,0.3c0.6,0.2,1,0.4,1.4,0.8c0.3,0.3,0.6,0.6,0.7,1c0.2,0.4,0.2,0.8,0.2,1.2v1.1h14.5v-1.6c0-2.3-0.6-4.4-1.7-6.1 c-1.1-1.7-2.5-3.1-4.3-4.2c-1.8-1.1-3.9-1.9-6.2-2.4c-4.6-1-10-1-14.8,0c-2.4,0.5-4.5,1.3-6.3,2.4c-1.9,1.1-3.4,2.6-4.5,4.3 c-1.1,1.8-1.7,4-1.7,6.5c0,2.1,0.4,4,1.2,5.5c0.8,1.5,1.8,2.8,3.1,3.8c1.2,1,2.7,1.8,4.2,2.4c1.5,0.6,3.1,1.1,4.7,1.5 c1.6,0.4,3.1,0.7,4.6,1c1.5,0.3,2.8,0.6,3.9,0.9c1.1,0.3,2,0.6,2.6,1c0.6,0.4,0.7,0.7,0.7,1c0,0.5-0.2,0.7-0.3,0.9 c-0.3,0.3-0.7,0.5-1.1,0.6c-0.5,0.2-1.1,0.3-1.7,0.3c-1.8,0.1-3.3,0.1-4.6-0.1c-0.7-0.1-1.3-0.3-1.8-0.6c-0.5-0.3-0.8-0.7-1-1.2 c-0.3-0.5-0.4-1.3-0.4-2.3v-0.9H0v0.9c0,3,0.6,5.6,1.7,7.6c1.1,2,2.7,3.6,4.7,4.8c2,1.1,4.3,1.9,6.9,2.4c2.6,0.4,5.4,0.6,8.4,0.6 c2.7,0,5.3-0.3,7.6-0.8c2.4-0.6,4.5-1.4,6.2-2.7c1.8-1.2,3.2-2.8,4.2-4.8c1-1.9,1.5-4.3,1.5-6.9c0-2-0.5-3.8-1.3-5.2 C39.3,126.4,38.2,125.2,37,124.2z M38.3,139.1c-0.9,1.7-2.1,3.1-3.6,4.1c-1.6,1.1-3.5,1.9-5.6,2.4c-2.2,0.5-4.6,0.8-7.2,0.8 c-2.9,0-5.6-0.2-8.1-0.6c-2.4-0.4-4.6-1.1-6.3-2.2c-1.7-1-3.1-2.4-4.1-4.1c-0.9-1.5-1.4-3.5-1.5-5.9h11.1c0.1,0.8,0.2,1.6,0.5,2.2 c0.4,0.8,1,1.5,1.7,1.9c0.7,0.4,1.5,0.7,2.5,0.9c1.4,0.2,3,0.3,5,0.1c0.8-0.1,1.5-0.2,2.1-0.4c0.7-0.2,1.3-0.6,1.8-1 c0.6-0.5,0.9-1.3,0.9-2.2c0-0.7-0.3-1.8-1.5-2.5c-0.8-0.5-1.8-0.9-3.1-1.3c-1.2-0.3-2.6-0.6-4.1-0.9c-1.5-0.3-3-0.6-4.5-1 c-1.5-0.4-3-0.9-4.5-1.4c-1.4-0.6-2.7-1.3-3.8-2.2c-1.1-0.9-1.9-2-2.6-3.2c-0.6-1.2-1-2.8-1-4.7c0-2.2,0.5-4.1,1.4-5.6 c1-1.5,2.3-2.8,3.9-3.8c1.6-1,3.6-1.7,5.8-2.2c4.5-0.9,9.7-0.9,14,0c2.1,0.5,4,1.2,5.6,2.2c1.6,1,2.8,2.2,3.8,3.6 c0.9,1.4,1.4,3.1,1.4,5h-11c-0.1-0.4-0.2-0.8-0.3-1.2c-0.2-0.6-0.7-1.2-1.2-1.6c-0.5-0.5-1.2-0.8-2-1.1c-0.8-0.3-1.7-0.4-2.8-0.4 c-2.1,0-3.6,0.3-4.7,0.9c-1.5,0.9-1.8,1.9-1.8,2.6c0,1.1,0.5,2,1.5,2.6c0.8,0.5,1.8,0.9,3.1,1.3c1.2,0.3,2.5,0.6,4,0.9 c1.5,0.3,3,0.6,4.5,0.9c1.5,0.4,3,0.8,4.5,1.3c1.4,0.5,2.7,1.2,3.8,2c1.1,0.8,2,1.8,2.6,3c0.7,1.2,1,2.6,1,4.4 C39.6,135.4,39.1,137.4,38.3,139.1z M58.2,104.8L42,147.4h15.8l1.8-5.8h13.5l1.8,5.8h16.3l-16.1-42.6H58.2z M76.3,145.7l-1.8-5.8 H58.4l-1.8,5.8h-12l14.8-39.1H74l14.8,39.1H76.3z M65.7,116.2l-5,16.3h11.6l-5-16.3H65.7z M63,130.8l3.4-11.1l3.4,11.1H63z M109.6,104.8H94.2v42.6h37.1v-12.2h-21.7V104.8z M129.6,137v8.7H96v-39.1h11.8V137H129.6z M150.6,131.4h19.7v-11.2h-19.7v-3.9h23 v-11.6h-38.4v42.6h38.8v-11.6h-23.4V131.4z M172.3,137.6v8h-35.3v-39.1h34.8v8h-23v7.4h19.7v7.6h-19.7v8H172.3z M39.3,177.7 c0.7,1.3,1.1,2.9,1.2,4.8c0,2.5-0.5,4.7-1.4,6.5c-0.9,1.8-2.2,3.3-3.9,4.4c-1.7,1.2-3.6,2-5.9,2.5c-2.3,0.5-4.7,0.8-7.4,0.8 c-3,0-5.7-0.2-8.3-0.6c-2.6-0.4-4.8-1.2-6.6-2.3c-1.9-1.1-3.3-2.6-4.4-4.5c-1.1-1.9-1.6-4.3-1.6-7.2h12.9c0,1.1,0.2,2,0.5,2.7 c0.3,0.7,0.8,1.2,1.4,1.6c0.6,0.4,1.3,0.6,2.1,0.8c0.8,0.1,1.8,0.2,2.8,0.2c0.6,0,1.3,0,2-0.1c0.7,0,1.3-0.2,1.9-0.3 c0.6-0.2,1.1-0.4,1.5-0.8c0.4-0.4,0.6-0.9,0.6-1.5c0-0.7-0.4-1.3-1.1-1.8c-0.7-0.4-1.7-0.8-2.8-1.1c-1.2-0.3-2.5-0.6-4-0.9 c-1.5-0.3-3-0.6-4.6-1s-3.1-0.9-4.6-1.5c-1.5-0.6-2.8-1.4-4-2.3c-1.2-0.9-2.1-2.1-2.8-3.5c-0.7-1.4-1.1-3.1-1.1-5.1 c0-2.4,0.5-4.4,1.6-6.1s2.4-3,4.2-4c1.7-1,3.8-1.8,6.1-2.3c2.3-0.5,4.7-0.7,7.2-0.7c2.5,0,4.9,0.2,7.2,0.7s4.2,1.3,5.9,2.3 c1.7,1,3,2.3,4,3.9c1,1.6,1.5,3.5,1.6,5.7v0.7H26.5v-0.2c0-0.5-0.1-1.1-0.3-1.6c-0.2-0.5-0.5-0.9-1-1.3c-0.4-0.4-1-0.7-1.7-0.9 c-0.7-0.2-1.5-0.3-2.5-0.3c-1.9,0-3.3,0.3-4.2,0.8c-0.9,0.5-1.4,1.2-1.4,1.9c0,0.8,0.4,1.4,1.1,1.9c0.7,0.5,1.6,0.9,2.8,1.2 c1.2,0.3,2.5,0.6,4,0.9c1.5,0.3,3,0.6,4.6,0.9c1.6,0.4,3.1,0.8,4.6,1.4c1.5,0.5,2.8,1.3,4,2.1C37.6,175.3,38.6,176.4,39.3,177.7z M58.8,155.2l-15.5,40.8h13.9l1.8-5.8h14.8l1.8,5.8H90l-15.4-40.8H58.8z M61.8,181.2l4.5-14.6h0.3l4.4,14.6H61.8z M108.7,185.6h21.7 v10.4H95.1v-40.8h13.6V185.6z M149.8,186.3h23.4v9.8h-37v-40.8h36.6v9.8h-23v5.6h19.7v9.4h-19.7V186.3z" fill="inherit"/></g></svg>