<?xml version="1.0" encoding="UTF-8"?><svg xmlns="http://www.w3.org/2000/svg" xmlns:xlink="http://www.w3.org/1999/xlink" height="400.6" preserveAspectRatio="xMidYMid meet" version="1.0" viewBox="-0.5 -0.6 211.9 400.6" width="211.9" zoomAndPan="magnify"><defs><clipPath id="a"><path d="M 134 63 L 210.578125 63 L 210.578125 91 L 134 91 Z M 134 63"/></clipPath></defs><g><g id="change1_1"><path d="M 65.601562 313.582031 C 64.183594 313.789062 63.199219 315.105469 63.40625 316.523438 C 63.960938 320.371094 64.503906 324.222656 65.03125 328.074219 C 65.207031 329.339844 66.257812 330.261719 67.488281 330.316406 C 67.640625 330.324219 67.800781 330.316406 67.957031 330.296875 C 69.378906 330.101562 70.371094 328.792969 70.179688 327.371094 C 69.648438 323.503906 69.105469 319.640625 68.542969 315.78125 C 68.339844 314.359375 67.019531 313.386719 65.601562 313.582031" fill="#231f20"/></g><g id="change1_2"><path d="M 60.988281 284.082031 C 62.40625 283.855469 63.367188 282.523438 63.140625 281.109375 C 62.4375 276.714844 61.894531 273.0625 61.425781 269.613281 C 61.234375 268.191406 59.933594 267.1875 58.507812 267.386719 C 57.085938 267.578125 56.089844 268.886719 56.28125 270.308594 C 56.753906 273.800781 57.304688 277.492188 58.015625 281.929688 C 58.210938 283.167969 59.253906 284.058594 60.460938 284.113281 C 60.632812 284.121094 60.808594 284.113281 60.988281 284.082031" fill="#231f20"/></g><g id="change1_3"><path d="M 95.957031 127.492188 C 98.050781 124.347656 100.273438 121.148438 102.5625 117.972656 C 103.398438 116.808594 103.136719 115.1875 101.972656 114.347656 C 100.8125 113.511719 99.1875 113.773438 98.347656 114.9375 C 96.023438 118.160156 93.765625 121.414062 91.632812 124.609375 C 90.839844 125.804688 91.160156 127.414062 92.355469 128.210938 C 92.761719 128.484375 93.21875 128.625 93.675781 128.644531 C 94.554688 128.683594 95.433594 128.277344 95.957031 127.492188" fill="#231f20"/></g><g id="change1_4"><path d="M 109.496094 108.683594 C 111.808594 105.691406 114.238281 102.636719 116.726562 99.605469 C 117.636719 98.496094 117.476562 96.859375 116.367188 95.949219 C 115.261719 95.042969 113.621094 95.203125 112.714844 96.3125 C 110.191406 99.382812 107.726562 102.476562 105.386719 105.507812 C 104.511719 106.644531 104.722656 108.273438 105.855469 109.152344 C 106.296875 109.488281 106.808594 109.667969 107.324219 109.6875 C 108.140625 109.726562 108.960938 109.378906 109.496094 108.683594" fill="#231f20"/></g><g id="change1_5"><path d="M 74.042969 383.175781 C 72.613281 383.304688 71.5625 384.570312 71.695312 385.996094 C 72.046875 389.867188 72.382812 393.742188 72.699219 397.613281 C 72.808594 398.933594 73.882812 399.941406 75.171875 399.996094 C 75.28125 400.003906 75.390625 400 75.5 399.992188 C 76.929688 399.875 77.996094 398.621094 77.878906 397.191406 C 77.558594 393.300781 77.222656 389.410156 76.867188 385.523438 C 76.734375 384.09375 75.457031 383.042969 74.042969 383.175781" fill="#231f20"/></g><g id="change1_6"><path d="M 25.75 218.746094 C 24.660156 218.183594 23.582031 217.609375 22.519531 217.015625 C 18.328125 214.683594 14.355469 212.082031 10.675781 208.921875 C 9.230469 207.679688 7.707031 205.832031 8.464844 204.082031 C 8.914062 203.042969 10.050781 202.476562 11.148438 202.191406 C 15.40625 201.097656 19.523438 203.347656 22.542969 206.1875 C 28.984375 212.242188 35.203125 219.324219 40.515625 226.382812 C 37.976562 223.015625 29.527344 220.6875 25.75 218.746094 Z M 57.75 260.9375 C 59.179688 260.804688 60.226562 259.535156 60.089844 258.109375 C 59.773438 254.746094 59.554688 251.554688 59.390625 248.382812 C 60.039062 247.371094 60.269531 246.097656 59.882812 244.859375 C 59.316406 243.035156 58.664062 241.257812 57.949219 239.515625 C 58.0625 238.773438 57.953125 238.023438 57.683594 237.335938 C 58.527344 236.917969 59.117188 236.066406 59.132812 235.0625 C 59.164062 233.445312 59.214844 231.8125 59.285156 230.167969 C 59.382812 227.957031 59.523438 225.738281 59.707031 223.5625 C 59.824219 222.136719 58.757812 220.878906 57.332031 220.761719 C 55.851562 220.625 54.644531 221.707031 54.53125 223.136719 C 54.34375 225.375 54.199219 227.660156 54.097656 229.9375 C 54.074219 230.492188 54.066406 231.03125 54.046875 231.585938 C 48.117188 221.085938 39.851562 212 31.652344 203.484375 C 28.375 200.082031 23.417969 194.9375 16.757812 193.558594 C 9.898438 192.144531 1.488281 196.222656 0.148438 203.5625 C -0.519531 207.21875 1.132812 210.988281 3.625 213.742188 C 6.117188 216.5 9.378906 218.421875 12.582031 220.300781 C 20.042969 224.671875 27.65625 228.753906 35.167969 233.066406 C 37.867188 234.613281 48.222656 238.398438 49.511719 241.296875 C 50.390625 243.273438 51.164062 245.300781 51.808594 247.375 C 52.148438 248.457031 52.878906 249.308594 53.800781 249.816406 C 53.953125 249.902344 54.121094 249.960938 54.28125 250.023438 C 54.445312 252.820312 54.640625 255.644531 54.921875 258.597656 C 55.046875 259.902344 56.113281 260.890625 57.386719 260.949219 C 57.507812 260.953125 57.628906 260.949219 57.75 260.9375" fill="#231f20"/></g><g id="change1_7"><path d="M 73.417969 376.714844 C 74.84375 376.570312 75.882812 375.292969 75.738281 373.867188 C 75.34375 369.984375 74.933594 366.101562 74.503906 362.222656 C 74.34375 360.796875 73.058594 359.777344 71.636719 359.929688 C 70.210938 360.085938 69.183594 361.371094 69.339844 362.796875 C 69.769531 366.660156 70.179688 370.523438 70.574219 374.394531 C 70.703125 375.691406 71.769531 376.667969 73.039062 376.726562 C 73.160156 376.730469 73.289062 376.726562 73.417969 376.714844" fill="#231f20"/></g><g id="change1_8"><path d="M 64.136719 307.1875 C 64.304688 307.195312 64.476562 307.1875 64.648438 307.160156 C 66.066406 306.945312 67.039062 305.621094 66.824219 304.203125 C 66.234375 300.347656 65.632812 296.492188 65.015625 292.640625 C 64.789062 291.222656 63.453125 290.257812 62.042969 290.484375 C 60.625 290.710938 59.660156 292.042969 59.886719 293.460938 C 60.5 297.300781 61.101562 301.140625 61.6875 304.988281 C 61.878906 306.230469 62.925781 307.136719 64.136719 307.1875" fill="#231f20"/></g><g id="change1_9"><path d="M 58.070312 199.707031 C 57.21875 203.558594 56.488281 207.480469 55.902344 211.359375 C 55.6875 212.777344 56.660156 214.101562 58.082031 214.316406 C 58.171875 214.328125 58.265625 214.339844 58.355469 214.34375 C 59.664062 214.398438 60.835938 213.460938 61.035156 212.136719 C 61.605469 208.371094 62.3125 204.566406 63.140625 200.824219 C 63.449219 199.425781 62.5625 198.039062 61.164062 197.730469 C 59.769531 197.421875 58.378906 198.304688 58.070312 199.707031" fill="#231f20"/></g><g id="change1_10"><path d="M 81.515625 148.585938 C 82.472656 148.628906 83.414062 148.140625 83.910156 147.246094 C 85.726562 143.945312 87.683594 140.582031 89.71875 137.246094 C 90.46875 136.023438 90.082031 134.425781 88.855469 133.679688 C 87.632812 132.929688 86.035156 133.316406 85.289062 134.539062 C 83.210938 137.941406 81.21875 141.371094 79.359375 144.738281 C 78.667969 145.996094 79.125 147.574219 80.382812 148.265625 C 80.742188 148.464844 81.128906 148.570312 81.515625 148.585938" fill="#231f20"/></g><g id="change1_11"><path d="M 71.261719 169.566406 C 72.3125 169.613281 73.332031 169.011719 73.765625 167.988281 C 75.234375 164.527344 76.851562 160.996094 78.570312 157.492188 C 79.199219 156.207031 78.667969 154.648438 77.382812 154.019531 C 76.089844 153.382812 74.535156 153.921875 73.90625 155.207031 C 72.148438 158.796875 70.492188 162.410156 68.988281 165.953125 C 68.425781 167.273438 69.039062 168.800781 70.359375 169.359375 C 70.652344 169.484375 70.957031 169.554688 71.261719 169.566406" fill="#231f20"/></g><g id="change1_12"><path d="M 64.664062 176.964844 C 63.316406 180.710938 62.085938 184.496094 61.003906 188.226562 C 60.605469 189.601562 61.398438 191.042969 62.773438 191.441406 C 62.976562 191.503906 63.183594 191.535156 63.386719 191.542969 C 64.554688 191.597656 65.652344 190.847656 65.992188 189.671875 C 67.042969 186.050781 68.242188 182.363281 69.550781 178.71875 C 70.035156 177.371094 69.335938 175.882812 67.984375 175.398438 C 66.632812 174.910156 65.148438 175.613281 64.664062 176.964844" fill="#231f20"/></g><g id="change1_13"><path d="M 119.800781 321.367188 C 119.4375 323.890625 115.3125 325.730469 112.238281 326.894531 L 84.957031 337.234375 C 90.382812 332.007812 96.429688 327.285156 102.414062 322.78125 C 105.214844 320.667969 107.976562 318.707031 110.746094 317.710938 C 111.824219 317.320312 112.902344 317.078125 113.984375 317.027344 C 115.71875 316.949219 117.753906 317.804688 118.929688 319.105469 C 119.613281 319.859375 119.90625 320.617188 119.800781 321.367188 Z M 113.601562 308.582031 C 106.808594 308.890625 101.101562 313.183594 97.328125 316.023438 C 88.28125 322.835938 79.09375 330.15625 71.730469 339.042969 C 71.726562 339.023438 71.722656 338.996094 71.71875 338.976562 C 71.535156 337.554688 70.246094 336.554688 68.8125 336.730469 C 67.390625 336.914062 66.386719 338.214844 66.570312 339.636719 C 66.765625 341.175781 66.949219 342.71875 67.140625 344.257812 C 66.210938 345.054688 65.671875 346.222656 65.664062 347.445312 C 64.679688 349.050781 63.757812 350.707031 62.910156 352.414062 C 61.871094 354.507812 62.726562 357.042969 64.816406 358.082031 C 65.890625 358.617188 67.085938 358.652344 68.132812 358.273438 C 69.121094 357.917969 69.976562 357.191406 70.484375 356.179688 C 71.046875 355.042969 71.660156 353.9375 72.300781 352.847656 C 72.683594 352.511719 72.960938 352.058594 73.09375 351.554688 C 73.300781 351.21875 73.5 350.871094 73.714844 350.539062 L 115.238281 334.800781 C 118.773438 333.460938 127.054688 330.316406 128.167969 322.570312 C 128.640625 319.308594 127.585938 316.0625 125.195312 313.425781 C 122.316406 310.246094 117.871094 308.390625 113.601562 308.582031" fill="#231f20"/></g><g id="change1_14"><path d="M 197.660156 84.996094 C 195.863281 86.804688 191.453125 85.8125 188.296875 84.910156 L 160.238281 76.898438 C 167.71875 75.949219 175.386719 75.777344 182.878906 75.742188 C 186.386719 75.722656 189.769531 75.800781 192.589844 76.652344 C 193.683594 76.984375 194.695312 77.4375 195.59375 78.042969 C 197.027344 79.015625 198.148438 80.914062 198.316406 82.664062 C 198.414062 83.675781 198.195312 84.460938 197.660156 84.996094 Z M 149.675781 131.292969 C 151.101562 134.25 152.828125 138.425781 151.351562 140.503906 C 150.914062 141.121094 150.179688 141.472656 149.164062 141.546875 C 147.414062 141.679688 145.351562 140.898438 144.148438 139.648438 C 143.398438 138.867188 142.78125 137.949219 142.269531 136.925781 C 140.945312 134.296875 140.296875 130.972656 139.714844 127.511719 C 138.476562 120.125 137.339844 112.539062 137 105.007812 Z M 131.453125 78.199219 C 130.753906 77.726562 129.90625 77.621094 129.144531 77.898438 C 128.199219 77.222656 127.394531 76.359375 126.859375 75.355469 C 126.0625 73.859375 125.835938 72.046875 126.101562 70.296875 C 126.765625 70.46875 127.460938 70.515625 128.136719 70.355469 C 128.84375 70.585938 129.558594 70.792969 130.273438 70.996094 C 130.277344 72.160156 130.542969 73.320312 131.109375 74.378906 C 131.523438 75.160156 132.082031 75.835938 132.730469 76.398438 C 132.140625 76.882812 131.710938 77.507812 131.453125 78.199219 Z M 74.375 98.1875 C 71.589844 99.921875 67.621094 102.082031 65.394531 100.839844 C 64.734375 100.46875 64.308594 99.777344 64.125 98.773438 C 63.804688 97.046875 64.363281 94.914062 65.476562 93.585938 C 66.171875 92.753906 67.023438 92.042969 67.984375 91.421875 C 70.460938 89.828125 73.695312 88.824219 77.074219 87.882812 C 84.285156 85.859375 91.707031 83.917969 99.15625 82.78125 Z M 95.535156 40.421875 C 92.828125 38.191406 90.273438 35.96875 88.652344 33.511719 C 88.019531 32.554688 87.53125 31.5625 87.230469 30.523438 C 86.746094 28.855469 87.097656 26.679688 88.085938 25.230469 C 88.660156 24.386719 89.332031 23.921875 90.082031 23.851562 C 92.621094 23.613281 95.378906 27.191406 97.230469 29.902344 L 113.683594 54 C 107.328125 49.953125 101.320312 45.179688 95.535156 40.421875 Z M 160.210938 21.84375 C 162.175781 18.9375 164.148438 16.183594 166.441406 14.339844 C 167.332031 13.621094 168.273438 13.039062 169.28125 12.640625 C 170.894531 12.003906 173.097656 12.148438 174.632812 12.996094 C 175.527344 13.484375 176.050781 14.109375 176.191406 14.851562 C 176.667969 17.355469 173.367188 20.4375 170.839844 22.539062 L 148.402344 41.191406 C 151.835938 34.480469 156.019531 28.050781 160.210938 21.84375 Z M 206.734375 81.855469 C 206.324219 77.582031 203.871094 73.441406 200.332031 71.042969 C 194.703125 67.230469 187.558594 67.261719 182.835938 67.285156 C 172.445312 67.335938 161.703125 67.675781 151.335938 69.832031 C 151.246094 68.625 151.042969 67.433594 150.65625 66.285156 C 149.34375 62.359375 146.332031 59.128906 142.398438 57.183594 L 176.246094 29.039062 C 179.15625 26.621094 185.960938 20.957031 184.496094 13.269531 C 183.882812 10.03125 181.824219 7.304688 178.710938 5.589844 C 174.953125 3.519531 170.148438 3.207031 166.171875 4.777344 C 159.851562 7.28125 155.847656 13.195312 153.203125 17.109375 C 145.816406 28.050781 138.445312 39.691406 134.640625 52.644531 C 133.875 53.339844 133.460938 54.269531 133.335938 55.230469 C 130.726562 55.324219 128.242188 55.984375 126.054688 57.117188 L 104.210938 25.132812 C 102.078125 22.011719 97.082031 14.699219 89.289062 15.433594 C 86.007812 15.742188 83.097656 17.53125 81.097656 20.46875 C 78.679688 24.015625 77.917969 28.769531 79.109375 32.875 C 81.003906 39.40625 86.515625 43.949219 90.164062 46.949219 C 98.871094 54.117188 108.105469 61.300781 118.425781 66.371094 C 117.742188 68.515625 117.480469 70.773438 117.660156 73.007812 C 116.589844 72.679688 115.40625 72.746094 114.363281 73.332031 C 100.875 72.859375 87.5 76.175781 74.792969 79.738281 C 70.242188 81.011719 63.363281 82.941406 58.996094 88.152344 C 56.253906 91.429688 55.03125 96.085938 55.808594 100.308594 C 56.453125 103.804688 58.394531 106.613281 61.273438 108.222656 C 68.105469 112.035156 75.628906 107.363281 78.839844 105.367188 L 116.550781 81.921875 C 118.308594 82.054688 120.054688 82.285156 121.796875 82.582031 C 122.257812 83.074219 122.734375 83.542969 123.246094 83.972656 C 122.253906 85.097656 121.257812 86.222656 120.296875 87.332031 C 119.355469 88.417969 119.472656 90.058594 120.554688 90.996094 C 121.015625 91.394531 121.574219 91.605469 122.140625 91.628906 C 122.90625 91.664062 123.679688 91.359375 124.21875 90.734375 C 125.382812 89.394531 126.574219 88.039062 127.785156 86.679688 C 128.101562 86.804688 128.414062 86.9375 128.738281 87.046875 C 128.796875 87.109375 128.867188 87.164062 128.929688 87.226562 C 128.929688 87.78125 129 88.34375 129.230469 88.878906 C 127.316406 102.242188 129.191406 115.894531 131.375 128.910156 C 132.15625 133.570312 133.34375 140.613281 138.058594 145.515625 C 141.023438 148.59375 145.523438 150.304688 149.800781 149.980469 C 153.347656 149.710938 156.347656 148.082031 158.253906 145.390625 C 162.777344 139.003906 158.933594 131.027344 157.292969 127.621094 L 138.207031 88.042969 C 141.378906 87.148438 144.394531 85.308594 146.789062 82.609375 C 146.96875 82.410156 147.109375 82.195312 147.277344 81.992188 L 185.976562 93.042969 C 189.613281 94.082031 198.128906 96.507812 203.652344 90.964844 C 205.980469 88.628906 207.074219 85.394531 206.734375 81.855469" fill="#231f20"/></g><g id="change2_1"><path d="M 72.332031 311.996094 C 72.125 310.574219 70.804688 309.597656 69.390625 309.796875 C 67.96875 310.003906 66.984375 311.320312 67.191406 312.738281 C 67.746094 316.585938 68.289062 320.4375 68.816406 324.289062 C 68.992188 325.550781 70.042969 326.476562 71.273438 326.53125 C 71.425781 326.539062 71.585938 326.53125 71.742188 326.511719 C 73.164062 326.316406 74.160156 325.007812 73.964844 323.585938 C 73.433594 319.71875 72.890625 315.855469 72.332031 311.996094" fill="#6f7c59"/></g><g id="change2_2"><path d="M 75.507812 335.1875 C 75.324219 333.765625 74.035156 332.765625 72.597656 332.945312 C 71.175781 333.128906 70.171875 334.429688 70.355469 335.851562 C 70.847656 339.707031 71.328125 343.5625 71.789062 347.425781 C 71.945312 348.707031 73.003906 349.65625 74.25 349.710938 C 74.390625 349.71875 74.53125 349.714844 74.675781 349.695312 C 76.101562 349.527344 77.117188 348.234375 76.949219 346.808594 C 76.484375 342.933594 76.003906 339.058594 75.507812 335.1875" fill="#6f7c59"/></g><g id="change2_3"><path d="M 61.800781 278.144531 C 61.996094 279.382812 63.039062 280.273438 64.246094 280.328125 C 64.417969 280.335938 64.597656 280.324219 64.773438 280.296875 C 66.191406 280.070312 67.15625 278.738281 66.925781 277.324219 C 66.222656 272.929688 65.679688 269.273438 65.210938 265.828125 C 65.019531 264.40625 63.71875 263.402344 62.292969 263.601562 C 60.871094 263.796875 59.875 265.101562 60.066406 266.523438 C 60.539062 270.015625 61.089844 273.707031 61.800781 278.144531" fill="#6f7c59"/></g><g id="change2_4"><path d="M 96.140625 124.425781 C 96.546875 124.699219 97.003906 124.839844 97.460938 124.859375 C 98.339844 124.898438 99.21875 124.492188 99.742188 123.703125 C 101.835938 120.5625 104.058594 117.359375 106.347656 114.1875 C 107.183594 113.023438 106.921875 111.402344 105.757812 110.5625 C 104.597656 109.722656 102.972656 109.988281 102.132812 111.148438 C 99.808594 114.375 97.550781 117.628906 95.417969 120.824219 C 94.625 122.019531 94.945312 123.632812 96.140625 124.425781" fill="#6f7c59"/></g><g id="change2_5"><path d="M 109.640625 105.363281 C 110.078125 105.703125 110.59375 105.882812 111.109375 105.902344 C 111.925781 105.941406 112.746094 105.59375 113.28125 104.894531 C 115.59375 101.90625 118.027344 98.851562 120.511719 95.820312 C 121.421875 94.710938 121.261719 93.074219 120.152344 92.164062 C 119.046875 91.257812 117.40625 91.417969 116.5 92.523438 C 113.976562 95.597656 111.511719 98.691406 109.171875 101.722656 C 108.296875 102.859375 108.507812 104.488281 109.640625 105.363281" fill="#6f7c59"/></g><g id="change2_6"><path d="M 75.480469 382.210938 C 75.835938 386.082031 76.167969 389.957031 76.484375 393.828125 C 76.59375 395.148438 77.667969 396.152344 78.957031 396.210938 C 79.066406 396.21875 79.175781 396.214844 79.285156 396.207031 C 80.714844 396.089844 81.78125 394.835938 81.664062 393.40625 C 81.34375 389.515625 81.007812 385.625 80.652344 381.738281 C 80.519531 380.308594 79.242188 379.257812 77.828125 379.390625 C 76.402344 379.519531 75.347656 380.785156 75.480469 382.210938" fill="#6f7c59"/></g><g id="change2_7"><path d="M 63.878906 254.324219 C 63.5 250.328125 63.238281 246.558594 63.074219 242.800781 C 63.015625 241.367188 61.828125 240.261719 60.367188 240.320312 C 58.9375 240.378906 57.824219 241.59375 57.886719 243.023438 C 58.050781 246.871094 58.320312 250.726562 58.707031 254.8125 C 58.832031 256.117188 59.898438 257.105469 61.171875 257.160156 C 61.292969 257.167969 61.414062 257.164062 61.535156 257.152344 C 62.964844 257.019531 64.011719 255.753906 63.878906 254.324219" fill="#6f7c59"/></g><g id="change2_8"><path d="M 78.289062 358.4375 C 78.128906 357.011719 76.84375 355.992188 75.421875 356.140625 C 73.996094 356.300781 72.96875 357.585938 73.128906 359.011719 C 73.554688 362.875 73.96875 366.738281 74.359375 370.605469 C 74.488281 371.90625 75.554688 372.882812 76.824219 372.9375 C 76.949219 372.945312 77.074219 372.941406 77.203125 372.929688 C 78.628906 372.785156 79.667969 371.507812 79.523438 370.082031 C 79.132812 366.199219 78.71875 362.316406 78.289062 358.4375" fill="#6f7c59"/></g><g id="change2_9"><path d="M 65.472656 301.203125 C 65.664062 302.445312 66.710938 303.347656 67.921875 303.402344 C 68.089844 303.410156 68.261719 303.402344 68.433594 303.375 C 69.851562 303.160156 70.824219 301.835938 70.609375 300.417969 C 70.019531 296.558594 69.417969 292.707031 68.800781 288.855469 C 68.574219 287.4375 67.238281 286.472656 65.828125 286.699219 C 64.410156 286.925781 63.445312 288.257812 63.671875 289.675781 C 64.285156 293.511719 64.886719 297.355469 65.472656 301.203125" fill="#6f7c59"/></g><g id="change2_10"><path d="M 61.867188 210.53125 C 61.957031 210.542969 62.050781 210.550781 62.140625 210.554688 C 63.453125 210.613281 64.621094 209.675781 64.824219 208.351562 C 65.390625 204.585938 66.097656 200.78125 66.925781 197.039062 C 67.234375 195.640625 66.351562 194.253906 64.949219 193.945312 C 63.554688 193.636719 62.164062 194.519531 61.855469 195.921875 C 61.003906 199.773438 60.273438 203.695312 59.6875 207.574219 C 59.472656 208.992188 60.449219 210.316406 61.867188 210.53125" fill="#6f7c59"/></g><g id="change2_11"><path d="M 60.207031 233.824219 C 60.230469 233.824219 60.253906 233.828125 60.277344 233.828125 C 61.714844 233.851562 62.894531 232.710938 62.917969 231.277344 C 62.949219 229.660156 63 228.027344 63.070312 226.382812 C 63.167969 224.171875 63.308594 221.949219 63.492188 219.777344 C 63.609375 218.351562 62.542969 217.09375 61.117188 216.976562 C 59.636719 216.839844 58.429688 217.921875 58.316406 219.351562 C 58.128906 221.589844 57.984375 223.875 57.882812 226.152344 C 57.808594 227.84375 57.757812 229.523438 57.726562 231.183594 C 57.703125 232.59375 58.804688 233.761719 60.207031 233.824219" fill="#6f7c59"/></g><g id="change2_12"><path d="M 135.558594 74.605469 C 134.5 73.640625 132.859375 73.714844 131.890625 74.773438 C 129.210938 77.710938 126.585938 80.660156 124.082031 83.546875 C 123.140625 84.632812 123.257812 86.269531 124.34375 87.210938 C 124.804688 87.609375 125.363281 87.816406 125.925781 87.84375 C 126.691406 87.878906 127.464844 87.574219 128.003906 86.949219 C 130.480469 84.097656 133.078125 81.175781 135.726562 78.273438 C 136.695312 77.210938 136.617188 75.570312 135.558594 74.605469" fill="#6f7c59"/></g><g id="change2_13"><path d="M 84.167969 144.480469 C 84.527344 144.679688 84.914062 144.785156 85.300781 144.800781 C 86.257812 144.84375 87.199219 144.355469 87.695312 143.460938 C 89.511719 140.160156 91.46875 136.796875 93.503906 133.464844 C 94.253906 132.238281 93.867188 130.640625 92.644531 129.894531 C 91.417969 129.144531 89.820312 129.53125 89.074219 130.753906 C 86.996094 134.15625 85.003906 137.585938 83.144531 140.953125 C 82.453125 142.210938 82.910156 143.789062 84.167969 144.480469" fill="#6f7c59"/></g><g id="change2_14"><path d="M 74.144531 165.574219 C 74.441406 165.699219 74.742188 165.765625 75.046875 165.78125 C 76.097656 165.828125 77.117188 165.226562 77.550781 164.199219 C 79.023438 160.742188 80.640625 157.210938 82.355469 153.707031 C 82.984375 152.421875 82.453125 150.863281 81.167969 150.234375 C 79.875 149.597656 78.320312 150.136719 77.691406 151.421875 C 75.933594 155.007812 74.28125 158.625 72.773438 162.167969 C 72.210938 163.488281 72.828125 165.011719 74.144531 165.574219" fill="#6f7c59"/></g><g id="change2_15"><path d="M 66.558594 187.65625 C 66.761719 187.71875 66.96875 187.75 67.171875 187.757812 C 68.339844 187.808594 69.4375 187.0625 69.777344 185.886719 C 70.828125 182.265625 72.027344 178.578125 73.335938 174.933594 C 73.820312 173.585938 73.121094 172.097656 71.769531 171.613281 C 70.417969 171.125 68.933594 171.828125 68.449219 173.179688 C 67.101562 176.925781 65.871094 180.710938 64.789062 184.441406 C 64.390625 185.816406 65.183594 187.257812 66.558594 187.65625" fill="#6f7c59"/></g><g id="change2_16"><path d="M 18.832031 198.054688 C 17.132812 197.703125 14.988281 198.222656 13.621094 199.320312 C 12.824219 199.957031 12.414062 200.664062 12.40625 201.417969 C 12.363281 203.96875 16.144531 206.4375 18.992188 208.070312 L 44.300781 222.597656 C 39.769531 216.574219 34.542969 210.957031 29.347656 205.5625 C 26.914062 203.035156 24.496094 200.664062 21.921875 199.238281 C 20.917969 198.683594 19.890625 198.273438 18.832031 198.054688 Z M 55.59375 243.589844 C 54.949219 241.511719 54.175781 239.488281 53.296875 237.511719 L 14.785156 215.40625 C 11.503906 213.523438 3.824219 209.109375 3.949219 201.285156 C 4 197.988281 5.554688 194.949219 8.332031 192.722656 C 11.679688 190.039062 16.355469 188.910156 20.542969 189.773438 C 27.203125 191.152344 32.160156 196.296875 35.4375 199.699219 C 44.59375 209.203125 53.851562 219.410156 59.824219 231.515625 C 61.273438 232.4375 61.984375 234.113281 61.734375 235.730469 C 62.453125 237.472656 63.101562 239.253906 63.667969 241.070312 C 64.363281 243.300781 63.117188 245.671875 60.890625 246.367188 C 59.742188 246.722656 58.558594 246.570312 57.585938 246.03125 C 56.664062 245.523438 55.933594 244.671875 55.59375 243.589844" fill="#6f7c59"/></g><g id="change2_17"><path d="M 114.53125 313.921875 C 111.761719 314.921875 109 316.882812 106.199219 318.996094 C 100.214844 323.5 94.167969 328.222656 88.742188 333.449219 L 116.023438 323.109375 C 119.097656 321.945312 123.222656 320.105469 123.585938 317.582031 C 123.691406 316.832031 123.402344 316.070312 122.714844 315.320312 C 121.539062 314.015625 119.503906 313.164062 117.769531 313.242188 C 116.6875 313.292969 115.609375 313.535156 114.53125 313.921875 Z M 71.917969 354.488281 C 70.871094 354.867188 69.675781 354.832031 68.601562 354.296875 C 66.511719 353.257812 65.65625 350.722656 66.695312 348.628906 C 67.542969 346.921875 68.464844 345.265625 69.449219 343.660156 C 69.457031 342.023438 70.425781 340.480469 72.003906 339.800781 C 79.8125 328.789062 90.570312 320.179688 101.113281 312.238281 C 104.886719 309.398438 110.597656 305.105469 117.390625 304.796875 C 121.660156 304.605469 126.101562 306.460938 128.980469 309.640625 C 131.367188 312.273438 132.425781 315.523438 131.953125 318.785156 C 130.839844 326.53125 122.558594 329.675781 119.023438 331.015625 L 77.5 346.753906 C 76.320312 348.566406 75.234375 350.445312 74.269531 352.394531 C 73.765625 353.40625 72.90625 354.132812 71.917969 354.488281" fill="#6f7c59"/></g><g clip-path="url(#a)" id="change3_1"><path d="M 196.375 72.867188 C 193.554688 72.015625 190.171875 71.9375 186.664062 71.957031 C 179.171875 71.992188 171.503906 72.164062 164.027344 73.113281 L 192.082031 81.125 C 195.242188 82.027344 199.648438 83.019531 201.449219 81.210938 C 201.980469 80.675781 202.199219 79.890625 202.101562 78.878906 C 201.9375 77.128906 200.8125 75.230469 199.378906 74.257812 C 198.480469 73.648438 197.46875 73.199219 196.375 72.867188 Z M 137.964844 79.929688 C 136.902344 79.605469 135.964844 78.867188 135.421875 77.796875 C 134.363281 75.710938 135.195312 73.167969 137.277344 72.113281 C 138.980469 71.25 140.707031 70.472656 142.457031 69.773438 C 143.441406 68.464844 145.136719 67.804688 146.808594 68.203125 C 159.652344 64.042969 173.421875 63.566406 186.621094 63.5 C 191.34375 63.476562 198.488281 63.445312 204.117188 67.257812 C 207.65625 69.65625 210.109375 73.796875 210.519531 78.066406 C 210.859375 81.609375 209.765625 84.84375 207.4375 87.179688 C 201.914062 92.722656 193.398438 90.296875 189.761719 89.257812 L 147.0625 77.0625 C 145.03125 77.8125 143.042969 78.667969 141.101562 79.65625 C 140.09375 80.164062 138.972656 80.234375 137.964844 79.929688" fill="#f48576"/></g><g id="change3_2"><path d="M 170.226562 10.554688 C 167.933594 12.398438 165.960938 15.152344 163.996094 18.058594 C 159.804688 24.265625 155.621094 30.695312 152.191406 37.40625 L 174.625 18.753906 C 177.152344 16.652344 180.453125 13.570312 179.976562 11.066406 C 179.835938 10.324219 179.3125 9.699219 178.417969 9.210938 C 176.882812 8.363281 174.683594 8.21875 173.066406 8.855469 C 172.058594 9.253906 171.117188 9.835938 170.226562 10.554688 Z M 143.125 62.773438 C 142.257812 63.46875 141.117188 63.828125 139.925781 63.671875 C 137.613281 63.367188 135.980469 61.246094 136.28125 58.933594 C 136.527344 57.039062 136.859375 55.175781 137.269531 53.339844 C 136.742188 51.785156 137.15625 50.011719 138.425781 48.855469 C 142.230469 35.90625 149.601562 24.261719 156.988281 13.324219 C 159.632812 9.410156 163.636719 3.496094 169.960938 0.992188 C 173.933594 -0.578125 178.738281 -0.269531 182.496094 1.800781 C 185.613281 3.519531 187.667969 6.246094 188.28125 9.484375 C 189.746094 17.171875 182.941406 22.835938 180.03125 25.253906 L 145.886719 53.644531 C 145.359375 55.742188 144.945312 57.871094 144.664062 60.027344 C 144.519531 61.148438 143.941406 62.113281 143.125 62.773438" fill="#f48576"/></g><g id="change3_3"><path d="M 92.4375 29.726562 C 94.058594 32.183594 96.613281 34.40625 99.324219 36.632812 C 105.105469 41.394531 111.113281 46.164062 117.46875 50.214844 L 101.015625 26.117188 C 99.164062 23.40625 96.40625 19.828125 93.867188 20.066406 C 93.117188 20.136719 92.445312 20.601562 91.871094 21.441406 C 90.882812 22.894531 90.53125 25.070312 91.015625 26.738281 C 91.316406 27.777344 91.804688 28.769531 92.4375 29.726562 Z M 141.867188 61.632812 C 142.480469 62.558594 142.726562 63.730469 142.460938 64.898438 C 141.941406 67.175781 139.675781 68.601562 137.398438 68.082031 C 135.539062 67.65625 133.714844 67.148438 131.921875 66.570312 C 130.328125 66.945312 128.601562 66.371094 127.570312 64.996094 C 115.035156 59.984375 104.140625 51.550781 93.949219 43.164062 C 90.300781 40.164062 84.789062 35.621094 82.894531 29.089844 C 81.707031 24.984375 82.46875 20.230469 84.882812 16.683594 C 86.882812 13.746094 89.792969 11.957031 93.074219 11.648438 C 100.867188 10.914062 105.863281 18.226562 107.996094 21.347656 L 133.039062 58.019531 C 135.078125 58.742188 137.160156 59.355469 139.28125 59.835938 C 140.382812 60.089844 141.289062 60.753906 141.867188 61.632812" fill="#f48576"/></g><g id="change3_4"><path d="M 69.261719 89.800781 C 68.148438 91.128906 67.589844 93.261719 67.910156 94.988281 C 68.09375 95.992188 68.523438 96.683594 69.179688 97.050781 C 71.40625 98.296875 75.375 96.132812 78.164062 94.398438 L 102.941406 78.996094 C 95.492188 80.132812 88.070312 82.074219 80.859375 84.097656 C 77.480469 85.039062 74.246094 86.042969 71.769531 87.636719 C 70.808594 88.257812 69.957031 88.96875 69.261719 89.800781 Z M 126.78125 78.992188 C 124.644531 78.578125 122.496094 78.296875 120.335938 78.136719 L 82.625 101.582031 C 79.414062 103.578125 71.894531 108.25 65.058594 104.433594 C 62.179688 102.828125 60.238281 100.019531 59.59375 96.519531 C 58.816406 92.300781 60.035156 87.644531 62.78125 84.367188 C 67.152344 79.15625 74.027344 77.226562 78.578125 75.953125 C 91.285156 72.390625 104.660156 69.070312 118.148438 69.546875 C 119.648438 68.707031 121.460938 68.875 122.765625 69.863281 C 124.640625 70.054688 126.515625 70.328125 128.386719 70.6875 C 130.679688 71.132812 132.179688 73.351562 131.734375 75.644531 C 131.507812 76.824219 130.808594 77.792969 129.871094 78.394531 C 128.988281 78.964844 127.894531 79.207031 126.78125 78.992188" fill="#f48576"/></g><g id="change3_5"><path d="M 147.933594 135.863281 C 149.140625 137.113281 151.199219 137.894531 152.949219 137.761719 C 153.964844 137.6875 154.703125 137.335938 155.136719 136.71875 C 156.613281 134.640625 154.886719 130.464844 153.460938 127.507812 L 140.785156 101.222656 C 141.125 108.753906 142.261719 116.339844 143.5 123.726562 C 144.078125 127.1875 144.734375 130.511719 146.054688 133.140625 C 146.566406 134.164062 147.183594 135.085938 147.933594 135.863281 Z M 143.328125 77.519531 C 142.6875 79.601562 142.179688 81.707031 141.789062 83.835938 L 161.078125 123.835938 C 162.71875 127.238281 166.5625 135.21875 162.039062 141.605469 C 160.132812 144.296875 157.132812 145.925781 153.585938 146.195312 C 149.308594 146.519531 144.808594 144.808594 141.84375 141.726562 C 137.128906 136.828125 135.941406 129.785156 135.160156 125.125 C 132.976562 112.109375 131.105469 98.457031 133.015625 85.09375 C 132.339844 83.515625 132.699219 81.730469 133.824219 80.539062 C 134.214844 78.695312 134.683594 76.859375 135.242188 75.039062 C 135.929688 72.804688 138.296875 71.554688 140.527344 72.238281 C 141.675781 72.589844 142.566406 73.390625 143.0625 74.382812 C 143.535156 75.320312 143.660156 76.4375 143.328125 77.519531" fill="#f48576"/></g><g id="change4_1"><path d="M 196.367188 70.4375 C 192.6875 68.644531 188.773438 67.644531 184.78125 67.265625 C 186.664062 67.113281 188.546875 67.035156 190.421875 67.054688 C 197.246094 67.121094 206.453125 69.761719 207.960938 77.621094 C 208.292969 79.355469 208.078125 80.613281 207.511719 81.539062 C 206.273438 76.742188 199.929688 72.175781 196.367188 70.4375 Z M 201.296875 88.636719 C 195.042969 90.113281 188.449219 86.972656 182.757812 84.480469 C 186.011719 84.945312 189.28125 85.296875 192.570312 85.429688 C 195.625 85.550781 198.683594 85.492188 201.726562 85.179688 C 203.085938 85.039062 204.734375 84.929688 206.164062 84.425781 C 205.628906 86.414062 203.980469 88.003906 201.296875 88.636719 Z M 151.894531 78.167969 C 152.59375 77.746094 153.289062 77.335938 153.980469 76.941406 C 155.273438 76.207031 156.59375 75.507812 157.9375 74.839844 C 160.617188 75.96875 163.21875 77.445312 165.378906 78.386719 C 167.910156 79.488281 170.460938 80.558594 173.003906 81.644531 C 165.984375 80.363281 158.992188 78.949219 151.894531 78.167969 Z M 139.359375 86.558594 C 139.554688 84.515625 139.730469 82.472656 139.855469 80.425781 C 139.910156 79.566406 138.570312 79.507812 138.519531 80.371094 C 138.425781 81.878906 138.304688 83.382812 138.171875 84.890625 C 138.054688 82.683594 138.363281 80.484375 139.023438 78.378906 C 142.042969 78.558594 145.058594 78.769531 148.070312 79.015625 C 144.835938 81.195312 141.785156 83.683594 139.359375 86.558594 Z M 148.886719 106.234375 C 152.359375 111.722656 154.855469 117.792969 156.71875 123.996094 C 157.101562 125.277344 157.597656 126.769531 158.070312 128.363281 C 157.226562 126.535156 156.316406 124.78125 155.660156 123.21875 C 153.332031 117.675781 151.125 112.0625 148.597656 106.609375 C 148.058594 105.445312 147.433594 104.316406 146.777344 103.207031 C 147.511719 104.191406 148.226562 105.191406 148.886719 106.234375 Z M 158.414062 142.289062 C 156.332031 145.742188 152.800781 145.136719 150.148438 143.160156 C 153.828125 143.535156 157.519531 142.804688 159.28125 140.222656 C 159.082031 140.957031 158.800781 141.652344 158.414062 142.289062 Z M 145.707031 140.527344 C 139.984375 138.570312 138.84375 131.933594 137.910156 126.566406 C 137.285156 122.96875 137.039062 119.320312 137.015625 115.671875 C 137.65625 117.859375 138.328125 120.023438 138.964844 122.144531 C 140.785156 128.222656 142.667969 134.980469 146.167969 140.332031 C 146.265625 140.480469 146.367188 140.632812 146.472656 140.78125 C 146.214844 140.695312 145.957031 140.609375 145.707031 140.527344 Z M 141.765625 96.964844 C 143.15625 99.117188 144.621094 101.230469 145.804688 103.492188 C 148.265625 108.195312 150.175781 113.199219 152.226562 118.089844 C 154.28125 122.992188 156.625 127.863281 158.359375 132.886719 C 159.589844 136.445312 159.21875 140.503906 154.996094 141.664062 C 152.828125 142.265625 150.476562 141.921875 148.257812 141.316406 C 146.015625 138.589844 144.699219 135.167969 143.4375 131.910156 C 140.804688 125.121094 138.992188 118.039062 137.175781 111 C 137.160156 110.941406 137.144531 110.878906 137.128906 110.816406 C 137.378906 104.878906 138.039062 98.972656 138.691406 93.0625 C 139.675781 94.394531 140.714844 95.683594 141.765625 96.964844 Z M 137.40625 91.246094 C 137.441406 91.300781 137.480469 91.355469 137.519531 91.410156 C 136.988281 96.289062 136.40625 101.167969 136.035156 106.0625 C 135.0625 101.003906 134.867188 95.851562 137.40625 91.246094 Z M 135.367188 84.820312 C 134.46875 82.625 133.816406 80.351562 133.261719 78.042969 C 134.855469 78.132812 136.449219 78.226562 138.046875 78.320312 C 137 81.652344 136.863281 85.242188 137.742188 88.683594 C 137.675781 88.785156 137.601562 88.890625 137.535156 88.992188 C 136.71875 87.664062 135.972656 86.289062 135.367188 84.820312 Z M 120.054688 76.074219 C 120.730469 75.5 121.394531 74.917969 122.050781 74.324219 C 122.394531 74.347656 122.734375 74.351562 123.078125 74.382812 C 123.746094 74.441406 123.792969 73.398438 123.121094 73.339844 C 123.550781 72.941406 123.976562 72.539062 124.398438 72.136719 C 126.105469 70.558594 127.777344 68.945312 129.511719 67.414062 C 130.128906 69.71875 130.699219 72.035156 131.183594 74.390625 C 131.347656 75.179688 131.515625 75.960938 131.691406 76.738281 C 127.816406 76.492188 123.933594 76.265625 120.054688 76.074219 Z M 80.832031 100.339844 C 77.605469 102.128906 74.027344 104.195312 70.304688 102.535156 C 69.742188 102.285156 69.234375 101.976562 68.765625 101.621094 C 70.425781 101.867188 72.195312 101.796875 73.941406 101.320312 C 79.378906 99.832031 84.445312 96.503906 89.417969 93.933594 C 94.988281 91.050781 100.597656 88.234375 106.054688 85.144531 C 107.011719 84.605469 107.960938 84.035156 108.90625 83.472656 C 99.945312 89.703125 90.367188 95.058594 80.832031 100.339844 Z M 62.242188 91.445312 C 63.484375 87.199219 67.050781 84.804688 70.921875 83.238281 C 70.773438 83.351562 70.613281 83.449219 70.464844 83.5625 C 66.722656 86.480469 63.773438 91.351562 64.652344 96.253906 C 64.882812 97.527344 65.394531 98.761719 66.097656 99.867188 C 63.03125 98.507812 61.007812 95.652344 62.242188 91.445312 Z M 120.390625 74.230469 C 119.714844 74.835938 119.035156 75.425781 118.34375 75.996094 C 113.714844 75.785156 109.089844 75.628906 104.476562 75.578125 C 103.152344 75.5625 101.828125 75.582031 100.507812 75.621094 C 107.074219 74.503906 113.710938 73.90625 120.390625 74.230469 Z M 65.761719 91.386719 C 67.09375 87.019531 70.304688 84.128906 74.132812 82.113281 C 74.160156 82.105469 74.183594 82.097656 74.207031 82.089844 C 78.792969 80.695312 83.445312 79.46875 88.089844 78.292969 C 89.886719 77.839844 91.695312 77.417969 93.503906 77.015625 C 101.300781 76.199219 109.191406 76.488281 117.058594 76.992188 C 116.75 77.226562 116.449219 77.480469 116.132812 77.703125 C 107.328125 84.007812 97.46875 88.722656 87.867188 93.664062 C 83.308594 96.011719 78.695312 98.972656 73.730469 100.363281 C 71.679688 100.9375 69.425781 100.910156 67.429688 100.34375 C 65.425781 97.9375 64.828125 94.453125 65.761719 91.386719 Z M 105.582031 54.546875 C 97.507812 49.433594 82.765625 37.640625 85.390625 26.398438 C 85.933594 29.570312 88.691406 32.378906 90.648438 34.660156 C 93.699219 38.222656 97.023438 41.550781 100.574219 44.613281 C 108.574219 51.507812 117.683594 56.894531 127.507812 60.714844 C 127.824219 61.648438 128.105469 62.597656 128.398438 63.542969 C 120.335938 62.011719 112.578125 58.976562 105.582031 54.546875 Z M 90.445312 19.820312 C 93.785156 18.175781 97.386719 19.109375 100.34375 21.109375 C 105.347656 24.496094 108.898438 30.273438 112.019531 35.3125 C 114.992188 40.109375 117.660156 45.082031 120.605469 49.894531 C 122.324219 52.695312 124.289062 56.421875 126.777344 59.066406 C 116.851562 55.070312 107.625 49.429688 99.644531 42.273438 C 95.570312 38.621094 91.59375 34.5625 88.414062 30.089844 C 85.714844 26.289062 85.929688 22.039062 90.445312 19.820312 Z M 117.171875 39.519531 C 120.59375 44.621094 123.351562 49.996094 125.59375 55.578125 C 125.480469 55.410156 125.367188 55.238281 125.253906 55.070312 C 122.324219 50.707031 119.8125 46.0625 117.214844 41.503906 C 115.640625 38.738281 113.992188 35.660156 112.160156 32.648438 C 114.324219 35.386719 116.089844 37.902344 117.171875 39.519531 Z M 129.40625 61.453125 C 129.546875 61.503906 129.664062 61.492188 129.773438 61.460938 C 130.839844 62 131.972656 62.246094 133.125 62.285156 C 132.53125 62.863281 131.941406 63.445312 131.355469 64.027344 C 130.894531 63.960938 130.433594 63.890625 129.976562 63.816406 C 129.734375 63 129.484375 62.1875 129.21875 61.378906 C 129.28125 61.402344 129.34375 61.429688 129.40625 61.453125 Z M 141.222656 55.96875 C 140.835938 57.117188 140.542969 58.320312 140.359375 59.578125 C 140.328125 59.785156 140.417969 59.925781 140.546875 60.007812 C 138.75 60.574219 136.871094 61.277344 134.972656 61.492188 C 136.976562 59.515625 139.058594 57.683594 141.222656 55.96875 Z M 156.429688 19.308594 C 160.613281 13.722656 166.945312 7.386719 174.148438 6.214844 C 176.050781 5.902344 178.113281 6.105469 179.914062 6.832031 C 177.816406 6.03125 175.394531 6.238281 173.289062 7.097656 C 169.171875 8.777344 165.648438 12.328125 162.671875 15.523438 C 159.371094 19.0625 156.511719 22.992188 154.019531 27.132812 C 150.652344 32.714844 147.769531 38.730469 145.367188 44.914062 C 147.488281 35.757812 150.722656 26.925781 156.429688 19.308594 Z M 144.582031 49.574219 C 147.527344 41.855469 150.519531 34.195312 154.890625 27.0625 C 158.035156 21.933594 161.753906 17.136719 166.1875 13.054688 C 168.59375 10.839844 171.277344 8.425781 174.484375 7.492188 C 178.136719 6.429688 182.550781 7.828125 182.953125 12.078125 C 183.554688 18.460938 177.53125 25.203125 172.945312 28.890625 C 168.578125 32.402344 163.574219 34.984375 158.765625 37.8125 C 153.503906 40.914062 148.183594 44.671875 144.582031 49.574219 Z M 184.53125 11.777344 C 185.601562 15.738281 183.808594 20.558594 181.96875 24.019531 C 175.082031 36.964844 160.667969 42.496094 148.757812 49.621094 C 147.019531 50.660156 145.363281 51.792969 143.765625 52.980469 C 143.808594 52.726562 143.847656 52.472656 143.894531 52.21875 C 152.175781 37.261719 176.449219 34.746094 182.804688 17.414062 C 183.949219 14.289062 184.824219 10.558594 182 8.078125 C 181.441406 7.585938 180.828125 7.222656 180.183594 6.945312 C 182.230469 7.84375 183.902344 9.4375 184.53125 11.777344 Z M 132.867188 63.605469 C 133.304688 63.160156 133.746094 62.714844 134.1875 62.269531 C 134.636719 62.238281 135.089844 62.183594 135.539062 62.101562 C 134.613281 62.542969 133.734375 63.0625 132.867188 63.605469 Z M 135.421875 64.484375 C 134.753906 64.433594 134.085938 64.367188 133.417969 64.292969 C 133.8125 64.011719 134.210938 63.734375 134.621094 63.46875 C 134.871094 63.8125 135.15625 64.144531 135.421875 64.484375 Z M 142.234375 71.03125 C 140.578125 72.84375 139.300781 74.9375 138.445312 77.175781 C 136.621094 77.054688 134.796875 76.9375 132.972656 76.820312 C 132.1875 73.351562 131.570312 69.828125 130.699219 66.394531 C 131.097656 66.0625 131.503906 65.730469 131.910156 65.410156 C 133.445312 65.609375 134.988281 65.753906 136.535156 65.847656 C 138.210938 67.773438 140.121094 69.578125 142.234375 71.03125 Z M 146.40625 73.308594 C 149.433594 74.503906 152.230469 74.421875 155.027344 73.796875 C 155.433594 73.910156 155.839844 74.046875 156.246094 74.1875 C 155.582031 74.53125 154.921875 74.886719 154.265625 75.25 C 152.738281 76.097656 151.191406 77.003906 149.667969 77.96875 C 148.800781 77.890625 147.933594 77.792969 147.0625 77.738281 C 144.519531 77.574219 141.96875 77.40625 139.417969 77.238281 C 140.214844 75.15625 141.355469 73.1875 142.828125 71.445312 C 143.972656 72.179688 145.164062 72.816406 146.40625 73.308594 Z M 178.398438 82.578125 C 173.429688 80.433594 168.464844 78.285156 163.519531 76.089844 C 162.21875 75.511719 160.84375 74.804688 159.425781 74.128906 C 165.242188 71.398438 171.492188 69.351562 177.859375 68.179688 C 184.707031 67.695312 191.546875 68.699219 197.6875 72.273438 C 200.511719 73.910156 203.316406 76.082031 205.070312 78.878906 C 205.886719 80.179688 206.308594 81.496094 206.355469 82.734375 C 204.289062 84.152344 200.820312 84.113281 198.246094 84.21875 C 194.679688 84.363281 191.109375 84.191406 187.5625 83.835938 C 184.492188 83.527344 181.441406 83.078125 178.398438 82.578125 Z M 160.988281 71.9375 C 161.023438 71.925781 161.0625 71.910156 161.097656 71.898438 C 159.992188 72.375 158.902344 72.875 157.828125 73.402344 C 157.660156 73.328125 157.496094 73.25 157.332031 73.183594 C 158.53125 72.8125 159.746094 72.378906 160.988281 71.9375 Z M 205.089844 70.542969 C 200.839844 66.628906 194.941406 65.582031 189.34375 65.671875 C 184.34375 65.75 179.308594 66.398438 174.378906 67.539062 C 172.6875 67.769531 171.007812 68.082031 169.355469 68.464844 C 166.449219 69.136719 163.59375 70.023438 160.785156 71.019531 C 159.238281 71.570312 157.675781 72.214844 156.078125 72.703125 C 153.710938 71.867188 151.28125 71.460938 148.902344 72.214844 C 148.515625 72.339844 148.371094 72.675781 148.390625 72.996094 C 144.199219 71.902344 140.789062 68.929688 137.605469 65.898438 C 139.363281 65.972656 141.128906 65.988281 142.894531 65.925781 C 143.710938 65.894531 143.773438 64.617188 142.949219 64.648438 C 140.6875 64.730469 138.429688 64.6875 136.179688 64.535156 C 135.746094 64.117188 135.316406 63.703125 134.886719 63.300781 C 135.734375 62.765625 136.609375 62.261719 137.535156 61.820312 C 137.660156 61.761719 137.683594 61.65625 137.660156 61.554688 C 138.855469 61.164062 140.007812 60.652344 141.0625 60.117188 C 141.109375 60.09375 141.121094 60.050781 141.121094 60.007812 C 141.257812 59.933594 141.367188 59.808594 141.394531 59.621094 C 141.644531 57.988281 142.058594 56.484375 142.589844 55.074219 C 142.179688 57.765625 141.800781 60.464844 141.453125 63.164062 C 141.390625 63.671875 142.179688 63.699219 142.246094 63.199219 C 142.644531 60.210938 143.066406 57.199219 143.558594 54.1875 C 146.105469 52.320312 148.765625 50.597656 151.5625 48.996094 C 157.199219 45.78125 163.050781 42.914062 168.433594 39.273438 C 176.523438 33.792969 187.171875 23.585938 185.488281 12.609375 C 184.859375 8.484375 181.339844 5.824219 177.320312 5.363281 C 172.472656 4.808594 167.859375 7.457031 164.148438 10.296875 C 153.953125 18.105469 148.195312 30.21875 145.082031 42.398438 C 144.402344 45.050781 143.863281 47.730469 143.375 50.417969 C 143.117188 51.179688 142.859375 51.941406 142.617188 52.703125 C 142.308594 53.289062 142.03125 53.898438 141.773438 54.515625 C 139.015625 56.71875 136.414062 59.101562 133.878906 61.554688 C 133.640625 61.554688 133.402344 61.558594 133.167969 61.535156 C 132.015625 61.445312 131.03125 61.101562 130.167969 60.597656 C 130.109375 60.445312 129.988281 60.316406 129.796875 60.246094 C 129.660156 60.195312 129.53125 60.140625 129.394531 60.089844 C 129.078125 59.851562 128.792969 59.570312 128.503906 59.289062 C 125.082031 49.621094 120.0625 40.523438 113.707031 32.472656 C 108.703125 26.132812 97.609375 11.769531 88.359375 19.277344 C 79.023438 26.855469 86.71875 39.21875 92.980469 45.769531 C 101.578125 54.765625 112.835938 61.15625 124.914062 64.109375 C 126.214844 64.429688 127.519531 64.699219 128.835938 64.933594 C 128.957031 65.347656 129.0625 65.769531 129.179688 66.1875 C 129.011719 66.355469 128.839844 66.527344 128.664062 66.699219 C 126.195312 68.761719 123.859375 71.058594 121.480469 73.246094 C 111.523438 72.617188 101.65625 74.058594 91.96875 76.304688 C 89.675781 76.609375 87.398438 77.007812 85.136719 77.527344 C 81.90625 78.273438 78.578125 79.183594 75.503906 80.578125 C 74.195312 80.976562 72.894531 81.394531 71.613281 81.851562 C 67.628906 83.269531 63.757812 85.472656 61.867188 89.433594 C 59.039062 95.355469 62.292969 99.839844 67.15625 101.273438 C 68.464844 102.703125 70.1875 103.726562 72.15625 103.984375 C 77.273438 104.65625 82.582031 100.40625 86.769531 98.054688 C 92.796875 94.667969 98.789062 91.207031 104.589844 87.441406 C 109.503906 84.253906 114.277344 80.835938 118.796875 77.105469 C 122.222656 77.335938 125.640625 77.589844 129.042969 77.796875 C 130.019531 77.855469 131.003906 77.910156 131.980469 77.96875 C 133.015625 82.277344 134.386719 86.414062 136.761719 90.234375 C 134.835938 93.582031 133.78125 97.386719 134.117188 101.746094 C 134.359375 104.839844 134.972656 107.945312 135.746094 111.027344 C 135.730469 111.464844 135.707031 111.894531 135.691406 112.328125 C 135.550781 117.1875 135.746094 122.070312 136.574219 126.863281 C 137.28125 130.941406 138.226562 136.847656 141.457031 139.8125 C 142.925781 141.160156 145.429688 142.273438 148.136719 142.84375 C 150.285156 145.121094 153.164062 146.800781 156.296875 145.582031 C 160.355469 144 160.835938 138.953125 160.46875 135.214844 C 159.339844 123.757812 154.300781 111.261719 147.53125 102.023438 C 145.515625 99.269531 143.242188 96.699219 141.117188 94.03125 C 140.449219 92.8125 139.828125 91.574219 139.324219 90.28125 C 139.230469 90.035156 139.152344 89.789062 139.070312 89.539062 C 139.097656 89.261719 139.121094 88.980469 139.152344 88.699219 C 142.101562 84.929688 146.125 81.808594 150.246094 79.195312 C 150.398438 79.207031 150.550781 79.21875 150.703125 79.230469 C 158.316406 79.9375 165.789062 81.46875 173.292969 82.871094 C 174.785156 83.152344 176.277344 83.421875 177.773438 83.683594 C 178.976562 84.191406 180.171875 84.714844 181.371094 85.21875 C 187.742188 87.886719 199.902344 93.863281 205.957031 87.339844 C 207.074219 86.136719 207.609375 84.878906 207.710938 83.605469 C 208.023438 83.371094 208.316406 83.105469 208.558594 82.777344 C 211.34375 79.007812 207.925781 73.15625 205.089844 70.542969" fill="#d37167"/></g><g id="change5_1"><path d="M 138.816406 75.5625 C 135.738281 76.152344 132.148438 74.402344 130.644531 71.570312 C 129.128906 68.726562 129.625 64.710938 131.796875 62.230469 C 132.792969 61.09375 134.097656 60.429688 135.46875 60.097656 C 136.964844 59.734375 138.542969 59.777344 139.867188 60.042969 C 139.929688 60.054688 139.996094 60.078125 140.0625 60.089844 C 138.4375 60.363281 136.933594 61.097656 135.867188 62.324219 C 133.867188 64.609375 133.476562 67.933594 134.894531 70.59375 C 135.679688 72.066406 136.941406 73.1875 138.414062 73.820312 C 138.859375 74.128906 139.375 74.355469 139.9375 74.472656 C 140.941406 74.679688 141.972656 74.652344 142.964844 74.414062 C 143 74.40625 143.03125 74.390625 143.0625 74.382812 C 142.445312 74.894531 141.769531 75.367188 141.011719 75.726562 C 140.332031 75.484375 139.578125 75.414062 138.816406 75.5625 Z M 154.441406 62.496094 C 152.648438 57.136719 147.695312 53.035156 141.519531 51.796875 C 135.34375 50.5625 129.191406 52.4375 125.46875 56.695312 C 120.976562 61.828125 120.054688 69.570312 123.21875 75.519531 C 125.191406 79.222656 128.628906 81.964844 132.523438 83.257812 C 133.105469 83.914062 133.894531 84.394531 134.816406 84.589844 C 136.980469 85.039062 139.222656 84.976562 141.398438 84.453125 C 144.789062 83.632812 148.027344 81.691406 150.574219 78.824219 C 154.757812 74.117188 156.242188 67.859375 154.441406 62.496094" fill="#e54047"/></g></g></svg>